<svg width="40" height="40" viewBox="0 0 40 40" fill="none" xmlns="http://www.w3.org/2000/svg">
  <rect width="40" height="40" rx="8" fill="#E6F7FF"/>
  <path d="M27 13H21V15H27V13Z" fill="#3366FF"/>
  <path d="M27 17H21V19H27V17Z" fill="#3366FF"/>
  <path d="M21 21H27V23H21V21Z" fill="#3366FF"/>
  <path d="M27 25H21V27H27V25Z" fill="#3366FF"/>
  <path d="M13 13H19V15H13V13Z" fill="#3366FF"/>
  <path d="M19 17H13V19H19V17Z" fill="#3366FF"/>
  <path d="M13 21H19V23H13V21Z" fill="#3366FF"/>
  <path d="M19 25H13V27H19V25Z" fill="#3366FF"/>
  <path d="M30 8H10C8.89543 8 8 8.89543 8 10V30C8 31.1046 8.89543 32 10 32H30C31.1046 32 32 31.1046 32 30V10C32 8.89543 31.1046 8 30 8Z" stroke="#3366FF" stroke-width="2"/>
</svg> 